HIERARCHY
ROOT Hips
{
    OFFSET 0.0 0.0 0.0
    CHANNELS 6 Xposition Yposition Zposition Zrotation Xrotation Yrotation
    JOINT LeftHipJoint
    {
        OFFSET 0.1 0.0 0.0
        CHANNELS 3 Zrotation Xrotation Yrotation
        JOINT LeftUpLeg
        {
            OFFSET 131.15667288214672 0.0 0.0
            CHANNELS 3 Zrotation Xrotation Yrotation
            JOINT LeftLeg
            {
                OFFSET 0.0 0.0 -431.6357040338777
                CHANNELS 3 Zrotation Xrotation Yrotation
                JOINT LeftFoot
                {
                    OFFSET 0.0 0.0 -373.3609893927246
                    CHANNELS 3 Zrotation Xrotation Yrotation
                    End Site
                    {
                        OFFSET 0.0 -0.1 0.0
                    }
                }
            }
        }
    }
    JOINT LowerBack
    {
        OFFSET 0.0 0.0 0.1
        CHANNELS 3 Zrotation Xrotation Yrotation
        JOINT Spine
        {
            OFFSET 0.0 0.0 233.3629646094836
            CHANNELS 3 Zrotation Xrotation Yrotation
            JOINT Spine1
            {
                OFFSET 0.0 0.0 249.99653041552367
                CHANNELS 3 Zrotation Xrotation Yrotation
                JOINT LeftShoulder
                {
                    OFFSET 0.1 0.0 0.0
                    CHANNELS 3 Zrotation Xrotation Yrotation
                    JOINT LeftArm
                    {
                        OFFSET 148.579151473534 0.0 0.0
                        CHANNELS 3 Zrotation Xrotation Yrotation
                        JOINT LeftForeArm
                        {
                            OFFSET 277.76412608930184 0.0 0.0
                            CHANNELS 3 Zrotation Xrotation Yrotation
                            JOINT LeftHand
                            {
                                OFFSET 251.01720754059875 0.0 0.0
                                CHANNELS 3 Zrotation Xrotation Yrotation
                                End Site
                                {
                                    OFFSET 0.1 0.0 0.0
                                }
                            }
                        }
                    }
                }
                JOINT Neck
                {
                    OFFSET 0.0 0.0 0.1
                    CHANNELS 3 Zrotation Xrotation Yrotation
                    JOINT Neck1
                    {
                        OFFSET 0.0 0.0 103.01591131624444
                        CHANNELS 3 Zrotation Xrotation Yrotation
                        End Site
                        {
                            OFFSET 0.0 0.0 107.28058569776225
                        }
                    }
                }
                JOINT RightShoulder
                {
                    OFFSET -0.1 0.0 0.0
                    CHANNELS 3 Zrotation Xrotation Yrotation
                    JOINT RightArm
                    {
                        OFFSET -148.579151473534 0.0 0.0
                        CHANNELS 3 Zrotation Xrotation Yrotation
                        JOINT RightForeArm
                        {
                            OFFSET -277.76412608930184 0.0 0.0
                            CHANNELS 3 Zrotation Xrotation Yrotation
                            JOINT RightHand
                            {
                                OFFSET -251.01720754059875 0.0 0.0
                                CHANNELS 3 Zrotation Xrotation Yrotation
                                End Site
                                {
                                    OFFSET -0.1 0.0 0.0
                                }
                            }
                        }
                    }
                }
            }
        }
    }
    JOINT RightHipJoint
    {
        OFFSET -0.1 0.0 0.0
        CHANNELS 3 Zrotation Xrotation Yrotation
        JOINT RightUpLeg
        {
            OFFSET -131.15667288214672 0.0 0.0
            CHANNELS 3 Zrotation Xrotation Yrotation
            JOINT RightLeg
            {
                OFFSET 0.0 0.0 -431.6357040338777
                CHANNELS 3 Zrotation Xrotation Yrotation
                JOINT RightFoot
                {
                    OFFSET 0.0 0.0 -373.3609893927246
                    CHANNELS 3 Zrotation Xrotation Yrotation
                    End Site
                    {
                        OFFSET 0.0 -0.1 0.0
                    }
                }
            }
        }
    }
}
MOTION
Frames: 4
Frame Time: 0.03333333333333333
0.0 0.0 816.8994952090475 27.373448834534894 -27.049135028728287 6.077179930713051 0.0 2.4848083448933725e-17 0.0 0.4711716528378606 13.688477023452789 0.7739286689725647 1.3612092658222903 26.329767467034007 -0.7365288709278769 0.0 0.0 7.951386703658792e-16 0.0 2.4848083448933725e-17 0.0 0.6385033755706502 18.39919377704806 -2.765213147180473 -3.346966047858744 -6.954495888333927e-16 -2.0318322820585343e-17 0.0 0.0 0.0 -91.03987652291025 10.744103411130455 57.40595609650443 -104.4711189390498 1.1330325728564483e-15 -8.924329769964927e-15 0.0 0.0 0.0 0.0 0.0 0.0 -5.353872496930909 16.41284135361549 -8.890443064575411 0.0 0.0 0.0 38.7662565586094 -32.29319808158547 -67.65332323318168 140.2979302573239 -7.685665417819627e-15 1.0751203089529352e-14 0.0 0.0 -6.3611093629270335e-15 0.0 2.4848083448933725e-17 0.0 0.6291345602236557 18.24440605619264 -3.229328684812303 -0.4538568667635973 20.582241142780266 7.434468479898972 -1.6552148617688095e-32 -1.5902773407317584e-15 -1.1927080055488188e-15
0.0 0.0 816.8994952090475 27.36293953390382 -27.077549612284862 6.079197448847734 0.0 0.0 7.951386703658792e-16 0.4891575042224415 13.637186569033213 0.7666479777900186 1.4027927311698503 26.3929208311764 -0.6638243686227859 0.0 0.0 -7.951386703658792e-16 0.0 0.0 7.951386703658792e-16 0.6671822409416686 18.440357251794367 -2.768422496243714 -3.2971391076148353 4.527992084130459e-16 -1.858350082238722e-16 0.0 0.0 -1.987846675914698e-16 -91.04573943390535 10.658922937525562 57.37560658188179 -104.45433402922171 8.924495636273452e-15 1.1317253608416067e-15 0.0 0.0 0.0 0.0 0.0 -1.987846675914698e-16 -5.324094746235503 16.248427743519358 -8.906155566952544 0.0 0.0 -1.987846675914698e-16 38.61546841947557 -32.384964169142165 -67.73929433984563 140.33423513396204 -1.6354222102798123e-14 -1.2660687934079964e-14 0.0 0.0 6.3611093629270335e-15 0.0 0.0 7.951386703658792e-16 0.6556804736718357 18.23828991810996 -3.262230538861903 -0.4392887993790352 20.808011071451265 7.423227259285388 1.2414111463266072e-32 1.1927080055488188e-15 -1.1927080055488188e-15
0.0 0.0 816.8994952090475 27.337818300879857 -27.085559337744584 6.138008501666789 0.0 0.0 -7.951386703658791e-16 0.5142653094198737 13.661973811864232 0.7048337236635335 1.4116060032673692 26.211387877382204 -0.6384474983332059 -3.1805546814635168e-15 5.517382872562698e-32 -1.987846675914698e-15 0.0 0.0 -7.951386703658791e-16 0.702807038581769 18.502356919999364 -2.8052919614556915 -3.225594911653886 -1.9624678505599625e-16 7.899282497604308e-16 0.0 0.0 1.987846675914698e-16 -91.01003572647312 10.65226107191468 57.234351742932255 -104.5350815956495 -3.892841085196184e-15 -5.030854859020142e-15 0.0 0.0 1.5902773407317584e-15 0.0 0.0 1.987846675914698e-16 -5.342676959751173 15.968981511482637 -8.791362435990466 0.0 0.0 1.987846675914698e-16 38.484676865285394 -32.39550013138672 -67.82169910982842 140.52237838849553 2.5225649334002217e-15 -5.8530709768612346e-15 0.0 0.0 0.0 0.0 0.0 -7.951386703658791e-16 0.6840840358658516 18.13387461912439 -3.4331286224065964 -0.4737068541708892 21.159865653636885 7.730629638841841 -2.758691436281349e-32 -1.5902773407317584e-15 -1.987846675914698e-15
0.0 0.0 816.8994952090475 27.263884931567123 -27.09700862594047 6.17365789261912 0.0 1.2424041724466861e-17 0.0 0.5328265989871331 13.768704702413068 0.7365138916511581 1.4448861890103033 26.010920165893854 -0.7182051813468254 0.0 0.0 3.975693351829396e-16 0.0 1.2424041724466861e-17 0.0 0.7218529687674866 18.484570933776524 -2.783847059076782 -3.1688557471471306 -2.1664531264119555e-15 1.3893544757547264e-16 0.0 0.0 0.0 -90.92369687238417 10.575990872890118 57.233842979839054 -104.6215863363499 0.0 -0.0 0.0 0.0 -1.5902773407317584e-15 0.0 0.0 0.0 -5.372344583983537 15.890795132725554 -8.72364796046131 0.0 0.0 0.0 38.44494792095478 -32.43849151992603 -67.98272884802212 140.6041501681645 -3.523218552819185e-15 2.576456896766542e-14 0.0 0.0 0.0 0.0 1.2424041724466861e-17 0.0 0.6963415373055188 17.961476815536027 -3.5287687225092546 -0.4958123073635871 21.486921710067207 8.00822744491746 0.0 0.0 3.975693351829396e-16
